# AST/ASF file generated using VICON BodyLanguage
# -----------------------------------------------
:version 1.10
:name VICON
:units
  mass 1.0
  length 0.45
  angle deg
:documentation
   .ast/.asf automatically generated from VICON data using
   VICON BodyBuilder and BodyLanguage model FoxedUp or BRILLIANT.MOD
:root
   order TX TY TZ RX RY RZ
   axis XYZ
   position 0 0 0  
   orientation 0 0 0 
:bonedata
  begin
     id 1 
     name lhipjoint
     direction 0.63403 -0.759788 0.143974 
     length 2.51904 
     axis 0 0 0  XYZ
  end
  begin
     id 2 
     name lfemur
     direction 0.34202 -0.939693 0  
     length 7.42313  
     axis 0 0 20  XYZ
    dof rx ry rz
    limits (-160.0 20.0)
           (-70.0 70.0)
           (-60.0 70.0)
  end
  begin
     id 3 
     name ltibia
     direction 0.34202 -0.939693 0   
     length 8.10141   
     axis 0 0 20   XYZ
    dof rx
    limits (-10.0 170.0)
  end
  begin
     id 4 
     name lfoot
     direction 0.0927455 -0.254816 0.962532   
     length 2.14078   
     axis -90 7.62852e-016 20   XYZ
    dof rx rz
    limits (-45.0 90.0)
           (-70.0 20.0)
  end
  begin
     id 5 
     name ltoes
     direction 1.53556e-011 -4.21949e-011 1   
     length 1.07182   
     axis -90 7.62852e-016 20   XYZ
    dof rx
    limits (-90.0 20.0)
  end
  begin
     id 6 
     name rhipjoint
     direction -0.659892 -0.738223 0.139888   
     length 2.59263  
     axis 0 0 0  XYZ 
  end
  begin
     id 7 
     name rfemur
     direction -0.34202 -0.939693 0   
     length 7.58575   
     axis 0 0 -20   XYZ
    dof rx ry rz
    limits (-160.0 20.0)
           (-70.0 70.0)
           (-70.0 60.0)
  end
  begin
     id 8 
     name rtibia
     direction -0.34202 -0.939693 0   
     length 8.19358   
     axis 0 0 -20   XYZ
    dof rx
    limits (-10.0 170.0)
 end
 begin
     id 9 
     name rfoot
     direction -0.0856543 -0.235333 0.968133   
     length 2.13415  
     axis -90 -7.62852e-016 -20   XYZ
    dof rx rz
    limits (-45.0 90.0)
           (-20.0 70.0)
  end
  begin
     id 10 
     name rtoes
     direction -1.53551e-011 -4.21811e-011 1   
     length 1.07055   
     axis -90 -7.62852e-016 -20   XYZ
    dof rx
    limits (-90.0 20.0)
  end
  begin
     id 11 
     name lowerback
     direction 0.025219 0.998394 -0.0507326   
     length 1.91844   
     axis 0 0 0   XYZ
    dof rx ry rz
    limits (-20.0 45.0)
           (-30.0 30.0)
           (-30.0 30.0)
  end
  begin
     id 12 
     name upperback
     direction 0.0213103 0.99967 -0.0143101   
     length 1.92246   
     axis 0 0 0   XYZ
    dof rx ry rz
    limits (-20.0 45.0)
           (-30.0 30.0)
           (-30.0 30.0)
  end
  begin
     id 13 
     name thorax
     direction 0.00920974 0.99991 0.00971518   
     length 1.92239   
     axis 0 0 0   XYZ
    dof rx ry rz
    limits (-20.0 45.0)
           (-30.0 30.0)
           (-30.0 30.0)
  end
  begin
     id 14 
     name lowerneck
     direction 0.0598257 0.997249 0.0437612   
     length 3.13679   
     axis 0 0 0   XYZ
    dof rx ry rz
    limits (-20.0 45.0)
           (-30.0 30.0)
           (-30.0 30.0)
  end
  begin
     id 15 
     name upperneck
     direction -0.035342 0.999338 0.00863891   
     length 3.16283   
     axis 0 0 0   XYZ
    dof rx ry rz
    limits (-20.0 45.0)
           (-30.0 30.0)
           (-30.0 30.0)
  end
  begin
     id 16
     name head
     direction 0.37144 0.811566 0.450991  
     length 1.2838  
     axis 0 0 0   XYZ
    dof rx ry rz
    limits (-20.0 45.0)
           (-30.0 30.0)
           (-30.0 30.0)
  end
  begin
     id 17 
     name lclavicle
     direction 0.961094 0.274654 -0.0293862  
     length 3.63466  
     axis 0 0 0   XYZ
    dof ry rz
    limits (-20.0 10.0)
           (0.0 20.0)
  end
  begin
     id 18 
     name lhumerus
     direction 1 -4.48963e-011 1.10303e-027   
     length 5.12842   
     axis 180 -30 -90   XYZ
    dof rx ry rz
    limits (-60.0 90.0)
           (-90.0 90.0)
           (-90.0 90.0)
  end
  begin
     id 19
     name lradius
     direction 1 -4.48968e-011 4.13199e-027   
     length 3.47396   
     axis 180 -30 -90   XYZ
    dof rx
    limits (-10.0 170.0)
  end
  begin
     id 20
     name lwrist
     direction 1 -4.48948e-011 9.12708e-027   
     length 1.73698   
     axis -6.84618e-015 90 90   XYZ
    dof ry
    limits (-180.0 0.0)
 end
  begin
     id 21 
     name lhand
     direction 1 -4.49057e-011 1.82749e-026   
     length 0.728607   
     axis -1.16502e-014 90 90   XYZ
    dof rx rz
    limits (-90.0 90.0)
           (-45.0 45.0)
  end
  begin
     id 22 
     name lfingers
     direction 1 -4.48912e-011 3.64949e-026   
     length 0.587422   
     axis -2.33008e-014 90 90   XYZ
    dof rx
    limits (0.0 90.0)
  end
  begin
     id 23
     name lthumb
     direction 0.707107 -6.34995e-011 0.707107   
     length 0.843424   
     axis -90 45 5.69224e-014   XYZ
    dof rx rz
    limits (-45.0 45.0)
           (-45.0 45.0)
  end
  begin
     id 24 
     name rclavicle
     direction -0.90514 0.421881 -0.0523369   
     length 3.57139  
     axis 0 0 0   XYZ 
    dof ry rz
    limits (-10.0 20.0)
           (-20.0 0.0)
  end
  begin
     id 25 
     name rhumerus
     direction -1 -4.48954e-011 -1.76662e-027  
     length 5.48477   
     axis 180 30 90   XYZ
    dof rx ry rz
    limits (-90.0 60.0)
           (-90.0 90.0)
           (-90.0 90.0)
  end
  begin
     id 26 
     name rradius
     direction -1 -4.48982e-011 1.26841e-027   
     length 3.47856   
     axis 180 30 90   XYZ
    dof rx
    limits (-10.0 170.0)
  end
  begin
     id 27 
     name rwrist
     direction -1 -4.49037e-011 9.13554e-027   
     length 1.73928   
     axis -6.84618e-015 -90 -90   XYZ
    dof ry
    limits (-180.0 0.0)
  end
  begin
     id 28
     name rhand
     direction -1 -4.48871e-011 1.82397e-026   
     length 0.709974   
     axis -1.16502e-014 -90 -90   XYZ
    dof rx rz
    limits (-90.0 90.0)
           (-45.0 45.0)
  end
  begin
     id 29
     name rfingers
     direction -1 -4.48994e-011 3.65258e-026   
     length 0.572399   
     axis -2.33008e-014 -90 -90   XYZ
    dof rx
    limits (0.0 90.0)
  end
  begin
     id 30
     name rthumb
     direction -0.707107 -6.34861e-011 0.707107   
     length 0.821855   
     axis -90 -45 -5.69224e-014   XYZ
    dof rx rz
    limits (-45.0 45.0)
           (-45.0 45.0)
  end
:hierarchy
  begin
    root lhipjoint rhipjoint lowerback
    lhipjoint lfemur
    lfemur ltibia
    ltibia lfoot
    lfoot ltoes
    rhipjoint rfemur
    rfemur rtibia
    rtibia rfoot
    rfoot rtoes
    lowerback upperback
    upperback thorax
    thorax lowerneck lclavicle rclavicle
    lowerneck upperneck
    upperneck head
    lclavicle lhumerus
    lhumerus lradius
    lradius lwrist
    lwrist lhand lthumb
    lhand lfingers
    rclavicle rhumerus
    rhumerus rradius
    rradius rwrist
    rwrist rhand rthumb
    rhand rfingers
  end

#!OML:ASF F:\VICON\USERDATA\INSTALL\Justin1\Justin1.ASF
:FULLY-SPECIFIED
:DEGREES
3299
root 0.394383 18.2188 -3.42212 4.51835 -2.53306 -2.64322
lowerback 1.79651 -1.04533 2.16507
upperback -2.11734 -1.22983 3.3756
thorax -3.15849 -0.622659 2.31856
lowerneck -13.7554 -7.10068 -6.83808
upperneck 14.3915 -8.5105 1.55404
head 7.02638 -4.33546 0.727732
rclavicle 5.11871e-015 1.19271e-014
rhumerus -34.4547 -17.7583 -72.2022
rradius 28.5959
rwrist 0.0509352
rhand -23.5023 13.7755
rfingers 7.12502
rthumb 2.95805 -16.1838
lclavicle 5.11871e-015 1.19271e-014
lhumerus -37.6858 13.9605 83.1744
lradius 30.052
lwrist -13.5466
lhand -10.7992 27.9548
lfingers 7.12502
lthumb 15.2139 57.3754
rfemur -15.5867 8.00697 25.3149
rtibia 33.6373
rfoot -18.0122 -15.4494
rtoes 24.4604
lfemur -13.7719 -8.53992 -20.1198
ltibia 28.4163
lfoot -16.84 9.55838
ltoes 10.8447
3300
root 0.392516 18.2195 -3.42044 4.52164 -2.56297 -2.64369
lowerback 1.78369 -1.04064 2.14674
upperback -2.12958 -1.22448 3.36807
thorax -3.16377 -0.619674 2.32075
lowerneck -13.7979 -7.07499 -6.85688
upperneck 14.4512 -8.47027 1.55971
head 7.05256 -4.31665 0.734403
rclavicle 2.3233e-014 1.19271e-014
rhumerus -34.322 -17.6161 -72.339
rradius 28.7977
rwrist -0.0225576
rhand -23.4106 13.8653
rfingers 7.12502
rthumb 3.04658 -16.0926
lclavicle 2.3233e-014 1.19271e-014
lhumerus -37.6791 14.0669 83.1046
lradius 30.0962
lwrist -13.7451
lhand -10.8974 27.8435
lfingers 7.12502
lthumb 15.1193 57.2712
rfemur -15.5847 7.98568 25.3241
rtibia 33.6273
rfoot -17.9302 -15.45
rtoes 24.2527
lfemur -13.7676 -8.59566 -20.1098
ltibia 28.4162
lfoot -16.8752 9.58318
ltoes 11.3305
3301
root 0.391712 18.22 -3.41921 4.54621 -2.53706 -2.63956
lowerback 1.78819 -1.04883 2.12356
upperback -2.17793 -1.23422 3.36247
thorax -3.21569 -0.624119 2.32948
lowerneck -13.8359 -7.03867 -6.80073
upperneck 14.555 -8.42216 1.50553
head 7.08589 -4.29563 0.710674
rclavicle 3.49116e-015 2.22639e-014
rhumerus -34.3011 -17.3341 -72.5152
rradius 29.1447
rwrist -0.173111
rhand -23.4275 13.6777
rfingers 7.12502
rthumb 3.03023 -16.2805
lclavicle 3.49116e-015 2.22639e-014
lhumerus -37.6834 14.0175 83.1028
lradius 30.1701
lwrist -13.5741
lhand -11.0598 27.9335
lfingers 7.12502
lthumb 14.9629 57.3729
rfemur -15.6077 7.99022 25.3243
rtibia 33.6246
rfoot -17.9648 -15.456
rtoes 24.5286
lfemur -13.8029 -8.5683 -20.109
ltibia 28.4122
lfoot -16.81 9.64278
ltoes 10.9363
3302
root 0.390145 18.2201 -3.41687 4.56455 -2.50477 -2.60686
lowerback 1.78671 -1.06534 2.07934
upperback -2.22658 -1.25635 3.34635
thorax -3.26397 -0.634347 2.33957
lowerneck -13.8694 -7.01299 -6.75028
upperneck 14.6586 -8.38408 1.43076
head 7.11827 -4.28161 0.680229
rclavicle 1.9866e-014 -5.32743e-014
rhumerus -34.2813 -17.0205 -72.7142
rradius 29.5168
rwrist -0.452102
rhand -23.3693 13.3757
rfingers 7.12502
rthumb 3.08648 -16.5817
lclavicle 1.9866e-014 -5.32743e-014
lhumerus -37.6729 14.0035 83.0625
lradius 30.1976
lwrist -13.4732
lhand -10.987 27.9138
lfingers 7.12502
lthumb 15.033 57.3481
rfemur -15.6091 7.9601 25.2962
rtibia 33.623
rfoot -18.0219 -15.4354
rtoes 24.7671
lfemur -13.7985 -8.53139 -20.1359
ltibia 28.3922
lfoot -16.811 9.64079
ltoes 10.4939
3303
root 0.389148 18.2193 -3.41395 4.61256 -2.48142 -2.5761
lowerback 1.68628 -1.07714 2.05562
upperback -2.22727 -1.27798 3.31816
thorax -3.20739 -0.644916 2.32221
lowerneck -14.0198 -7.01038 -6.69563
upperneck 14.7502 -8.37028 1.36413
head 7.16794 -4.27697 0.645179
rclavicle 1.4238e-014 -4.21423e-014
rhumerus -34.1567 -16.8146 -72.9086
rradius 29.7378
rwrist -0.664801
rhand -23.3757 13.1537
rfingers 7.12502
rthumb 3.08027 -16.8038
lclavicle 1.4238e-014 -4.21423e-014
lhumerus -37.539 14.1065 82.9869
lradius 30.1072
lwrist -13.6354
lhand -10.9008 27.8279
lfingers 7.12502
lthumb 15.1161 57.2559
rfemur -15.6423 7.92598 25.2618
rtibia 33.6205
rfoot -18.0101 -15.3824
rtoes 24.9008
lfemur -13.8289 -8.58368 -20.1557
ltibia 28.3746
lfoot -16.845 9.55788
ltoes 11.0168
3304
root 0.388589 18.2206 -3.41096 4.57668 -2.46137 -2.57901
lowerback 1.67325 -1.08075 2.06859
upperback -2.20006 -1.2844 3.30321
thorax -3.17233 -0.648573 2.29886
lowerneck -14.062 -7.02714 -6.66313
upperneck 14.6976 -8.38992 1.33082
head 7.15578 -4.28677 0.626755
rclavicle 1.84497e-014 -7.95139e-016
rhumerus -34.0163 -16.5799 -73.1131
rradius 29.9373
rwrist -0.900412
rhand -23.4918 13.0835
rfingers 7.12502
rthumb 2.96814 -16.8756
lclavicle 1.84497e-014 -7.95139e-016
lhumerus -37.4387 14.0415 83.0066
lradius 30.131
lwrist -13.5227
lhand -10.7674 28.0326
lfingers 7.12502
lthumb 15.2446 57.4509
rfemur -15.5878 7.93683 25.2736
rtibia 33.6165
rfoot -18.0343 -15.3465
rtoes 25.2262
lfemur -13.788 -8.58992 -20.1539
ltibia 28.3446
lfoot -16.8422 9.51044
ltoes 10.9871
3305
root 0.388276 18.2213 -3.40727 4.54429 -2.41407 -2.58994
lowerback 1.66067 -1.11094 2.0864
upperback -2.19281 -1.3251 3.29803
thorax -3.15728 -0.669348 2.28483
lowerneck -14.0481 -7.01649 -6.65607
upperneck 14.6534 -8.37592 1.32365
head 7.13777 -4.28019 0.626234
rclavicle -1.11816e-015 2.46493e-014
rhumerus -33.8061 -16.3599 -73.3057
rradius 29.9698
rwrist -1.06305
rhand -23.6798 13.1532
rfingers 7.12502
rthumb 2.78657 -16.8083
lclavicle -1.11816e-015 2.46493e-014
lhumerus -37.3834 14.0766 82.9841
lradius 30.1596
lwrist -13.4192
lhand -10.5149 28.3485
lfingers 7.12502
lthumb 15.4878 57.7481
rfemur -15.5211 7.92251 25.2996
rtibia 33.6062
rfoot -18.0606 -15.3976
rtoes 25.1887
lfemur -13.7474 -8.58377 -20.1533
ltibia 28.3282
lfoot -16.7783 9.55525
ltoes 10.5169
3306
root 0.38795 18.2214 -3.40379 4.51226 -2.33201 -2.56257
lowerback 1.62804 -1.13713 2.08709
upperback -2.18287 -1.36255 3.27049
thorax -3.1283 -0.688347 2.25654
lowerneck -14.1057 -7.01739 -6.63366
upperneck 14.7079 -8.37104 1.28186
head 7.16238 -4.28013 0.606945
rclavicle 9.56651e-016 -5.56597e-015
rhumerus -33.6318 -16.2928 -73.4174
rradius 29.9645
rwrist -1.09162
rhand -23.7691 13.1417
rfingers 7.12502
rthumb 2.70037 -16.821
lclavicle 9.56651e-016 -5.56597e-015
lhumerus -37.3136 14.0922 82.9675
lradius 30.1385
lwrist -13.3513
lhand -10.4637 28.4002
lfingers 7.12502
lthumb 15.5371 57.7961
rfemur -15.4369 7.85733 25.2891
rtibia 33.5467
rfoot -18.0215 -15.4699
rtoes 25.0372
lfemur -13.6496 -8.6241 -20.1854
ltibia 28.2515
lfoot -16.7702 9.52679
ltoes 10.4656
3307
root 0.385822 18.2225 -3.40328 4.51182 -2.30264 -2.58564
lowerback 1.61974 -1.14222 2.08321
upperback -2.19687 -1.3689 3.28482
thorax -3.13754 -0.691266 2.27389
lowerneck -14.1626 -7.0196 -6.65859
upperneck 14.8099 -8.35533 1.22172
head 7.20347 -4.27949 0.589397
rclavicle 1.87603e-015 -5.40694e-014
rhumerus -33.4997 -16.3525 -73.4304
rradius 29.9383
rwrist -0.922365
rhand -23.8555 13.3904
rfingers 7.12502
rthumb 2.61689 -16.5733
lclavicle 1.87603e-015 -5.40694e-014
lhumerus -37.2993 14.131 82.9971
lradius 30.178
lwrist -13.309
lhand -10.5604 28.3798
lfingers 7.12502
lthumb 15.4439 57.7828
rfemur -15.4302 7.8715 25.3292
rtibia 33.5382
rfoot -18.0938 -15.4654
rtoes 25.5036
lfemur -13.6505 -8.60775 -20.1468
ltibia 28.2569
lfoot -16.7963 9.51691
ltoes 10.482
3308
root 0.38406 18.2331 -3.39905 4.50162 -2.31261 -2.57432
lowerback 1.5811 -1.148 2.05664
upperback -2.19612 -1.37949 3.27239
thorax -3.11429 -0.696078 2.27536
lowerneck -14.319 -7.01061 -6.68799
upperneck 15.0098 -8.32606 1.21159
head 7.2956 -4.26786 0.584954
rclavicle -1.11195e-014 -1.74931e-014
rhumerus -33.3581 -16.3132 -73.5333
rradius 29.9367
rwrist -0.906449
rhand -23.8031 13.4122
rfingers 7.12502
rthumb 2.66756 -16.5509
lclavicle -1.11195e-014 -1.74931e-014
lhumerus -37.2818 14.0657 83.0149
lradius 30.2311
lwrist -13.2578
lhand -10.7523 28.3736
lfingers 7.12502
lthumb 15.2591 57.7908
rfemur -15.3799 7.88936 25.3234
rtibia 33.4986
rfoot -18.0645 -15.4707
rtoes 25.4768
lfemur -13.6084 -8.60848 -20.1569
ltibia 28.2538
lfoot -16.8232 9.59393
ltoes 10.3219
3309
root 0.382095 18.2216 -3.39761 4.52447 -2.32935 -2.57072
lowerback 1.4987 -1.15694 2.03035
upperback -2.20195 -1.39579 3.26312
thorax -3.07295 -0.703726 2.27917
lowerneck -14.405 -6.97881 -6.74277
upperneck 15.1325 -8.27923 1.28476
head 7.3545 -4.24192 0.617226
rclavicle -7.61594e-015 2.46493e-014
rhumerus -33.2154 -16.1343 -73.6577
rradius 29.9358
rwrist -1.02292
rhand -23.6592 13.5168
rfingers 7.12502
rthumb 2.80653 -16.4445
lclavicle -7.61594e-015 2.46493e-014
lhumerus -37.2148 14.1229 82.9641
lradius 30.1736
lwrist -13.3403
lhand -10.9881 28.287
lfingers 7.12502
lthumb 15.0319 57.7214
rfemur -15.3874 7.92072 25.3234
rtibia 33.4459
rfoot -18.0036 -15.5152
rtoes 24.9729
lfemur -13.6195 -8.60365 -20.1591
ltibia 28.2524
lfoot -16.826 9.61574
ltoes 10.3857
3310
root 0.381429 18.2215 -3.39621 4.53928 -2.31135 -2.64762
lowerback 1.4815 -1.15969 2.1252
upperback -2.23181 -1.39623 3.25929
thorax -3.09658 -0.706208 2.2223
lowerneck -14.2625 -6.9892 -6.79453
upperneck 14.9935 -8.3012 1.34177
head 7.29015 -4.25067 0.648384
rclavicle 2.37423e-014 3.97569e-015
rhumerus -33.2085 -16.0339 -73.7529
rradius 30.0779
rwrist -1.05178
rhand -23.5131 13.5803
rfingers 7.12502
rthumb 2.9476 -16.3791
lclavicle 2.37423e-014 3.97569e-015
lhumerus -37.1655 14.1012 82.9374
lradius 30.1201
lwrist -13.2973
lhand -11.0655 28.1638
lfingers 7.12502
lthumb 14.9574 57.6036
rfemur -15.3519 7.92074 25.4131
rtibia 33.367
rfoot -18.0241 -15.5641
rtoes 24.7821
lfemur -13.6242 -8.61175 -20.0698
ltibia 28.2268
lfoot -16.7966 9.62939
ltoes 10.332
3311
root 0.37866 18.2322 -3.3925 4.531 -2.29652 -2.71896
lowerback 1.49626 -1.15269 2.18637
upperback -2.26174 -1.38307 3.26363
thorax -3.1376 -0.701071 2.19302
lowerneck -14.1821 -7.02802 -6.79436
upperneck 14.9116 -8.34614 1.26907
head 7.24819 -4.27897 0.62399
rclavicle -1.53561e-014 4.77083e-015
rhumerus -33.1712 -15.938 -73.8395
rradius 30.1537
rwrist -1.11456
rhand -23.6286 13.4761
rfingers 7.12502
rthumb 2.83607 -16.4847
lclavicle -1.53561e-014 4.77083e-015
lhumerus -37.1284 14.1808 82.8838
lradius 30.0278
lwrist -13.411
lhand -10.9903 28.0219
lfingers 7.12502
lthumb 15.0299 57.4564
rfemur -15.3148 7.96705 25.5075
rtibia 33.3617
rfoot -18.0172 -15.6534
rtoes 24.6918
lfemur -13.6327 -8.63144 -19.9821
ltibia 28.2972
lfoot -16.8218 9.65122
ltoes 10.1218
3312
root 0.376485 18.231 -3.38852 4.50101 -2.23772 -2.72084
lowerback 1.47726 -1.17324 2.17568
upperback -2.26347 -1.41186 3.25359
thorax -3.128 -0.715291 2.18937
lowerneck -14.2271 -7.03368 -6.74416
upperneck 14.9557 -8.34587 1.17933
head 7.26414 -4.28402 0.585057
rclavicle 5.25537e-015 2.38542e-015
rhumerus -33.0562 -15.964 -73.9077
rradius 30.1181
rwrist -1.0694
rhand -23.7737 13.2608
rfingers 7.12502
rthumb 2.69595 -16.7019
lclavicle 5.25537e-015 2.38542e-015
lhumerus -37.0342 14.4109 82.7738
lradius 29.8508
lwrist -13.6612
lhand -10.9267 27.9333
lfingers 7.12502
lthumb 15.0912 57.3632
rfemur -15.2496 7.90205 25.5308
rtibia 33.3463
rfoot -17.9907 -15.6188
rtoes 25.0051
lfemur -13.5929 -8.6535 -19.9822
ltibia 28.3139
lfoot -16.8185 9.70136
ltoes 9.7471
3313
root 0.37517 18.2198 -3.38627 4.48893 -2.1654 -2.72694
lowerback 1.45739 -1.1929 2.17985
upperback -2.30466 -1.4374 3.24749
thorax -3.15908 -0.728271 2.18217
lowerneck -14.1529 -7.01738 -6.74042
upperneck 14.9892 -8.32164 1.12749
head 7.25905 -4.27793 0.572518
rclavicle -2.65315e-014 -1.59028e-014
rhumerus -33.0126 -15.9717 -73.9287
rradius 30.0619
rwrist -1.00214
rhand -23.7714 13.0724
rfingers 7.12502
rthumb 2.69815 -16.8902
lclavicle -2.65315e-014 -1.59028e-014
lhumerus -37.0508 14.5179 82.7213
lradius 29.8083
lwrist -13.798
lhand -10.9013 28.0276
lfingers 7.12502
lthumb 15.1156 57.4557
rfemur -15.2354 7.82076 25.5546
rtibia 33.3599
rfoot -18.0284 -15.6135
rtoes 24.9494
lfemur -13.6214 -8.74748 -19.9658
ltibia 28.356
lfoot -16.8028 9.71598
ltoes 9.67819
